# xmcd
#
# Track frame offsets: 
#        150
#        9372
#        22232
#        30623
#        40859
#        49285
#        60591
#        70239
#        83724
#        98785
#        109969
#        120589
#        130272
#        140453
#        152686
#        162212
#        171421
#        182214
#        190679
#        200570
#
# Disc length: 2834 seconds
#
# Revision: 0
# Processed by: cddbd v1.5.2PL0 Copyright (c) Steve Scherf et al.
# Submitted via: ExactAudioCopy v0.99pb5
#
DISCID=150b1014
DTITLE=Everly Brothers  - 100 Hits Legends - CD 3
DYEAR=1900
DGENRE=
TTITLE0=Cryin In The Rain
TTITLE1=My Girl Sal
TTITLE2=Mention My Name In Sheboygan
TTITLE3=My Mammy
TTITLE4=How Can I Meet Her
TTITLE5=Don't Ask Me To Be Friends
TTITLE6=No One Can Make My Sunshine Smile
TTITLE7=Autumn Leaves
TTITLE8=Bye Bye Blackbird
TTITLE9=Burma Shave (Nashville Version)
TTITLE10=Chains
TTITLE11=Dancing On My Feet
TTITLE12=Foolish Doubts
TTITLE13=Kuckoo Bird
TTITLE14=Ground Hog
TTITLE15=Im Not Angry
TTITLE16=Jezebel
TTITLE17=Long Lost John
TTITLE18=Oh My Papa\\O Mein Papa
TTITLE19=Now Is The Hour\\Maori Farewell Song
EXTD=
EXTT0=
EXTT1=
EXTT2=
EXTT3=
EXTT4=
EXTT5=
EXTT6=
EXTT7=
EXTT8=
EXTT9=
EXTT10=
EXTT11=
EXTT12=
EXTT13=
EXTT14=
EXTT15=
EXTT16=
EXTT17=
EXTT18=
EXTT19=
PLAYORDER=
